<svg width="140" height="166" viewBox="0 0 140 166" fill="none" xmlns="http://www.w3.org/2000/svg">
<rect y="15" width="140" height="135" rx="20" fill="#0F172A"/>
<path d="M60.8 129.536C53.632 129.536 47.872 127.915 43.52 124.672C39.168 121.344 36.992 116.736 36.992 110.848C36.992 104.96 38.8267 100.352 42.496 97.024C46.1653 93.696 51.7547 91.3067 59.264 89.856L81.92 85.376C81.92 80.512 80.8107 76.8853 78.592 74.496C76.3733 72.0213 73.088 70.784 68.736 70.784C64.8107 70.784 61.696 71.7227 59.392 73.6C57.1733 75.392 55.6373 77.9947 54.784 81.408L38.144 80.64C39.5093 73.3867 42.8373 67.84 48.128 64C53.4187 60.0747 60.288 58.112 68.736 58.112C78.464 58.112 85.8027 60.5867 90.752 65.536C95.7867 70.4 98.304 77.3973 98.304 86.528V111.36C98.304 113.152 98.6027 114.389 99.2 115.072C99.8827 115.755 100.864 116.096 102.144 116.096H104.32V128C103.808 128.171 102.955 128.299 101.76 128.384C100.651 128.469 99.4987 128.512 98.304 128.512C95.488 128.512 92.9707 128.085 90.752 127.232C88.5333 126.293 86.8267 124.715 85.632 122.496C84.4373 120.192 83.84 117.077 83.84 113.152L85.248 114.176C84.5653 117.163 83.072 119.851 80.768 122.24C78.5493 124.544 75.7333 126.336 72.32 127.616C68.9067 128.896 65.0667 129.536 60.8 129.536ZM64.128 117.632C67.7973 117.632 70.9547 116.907 73.6 115.456C76.2453 114.005 78.2933 112 79.744 109.44C81.1947 106.88 81.92 103.851 81.92 100.352V96.512L64.256 100.096C60.5867 100.864 57.9413 102.016 56.32 103.552C54.784 105.003 54.016 106.923 54.016 109.312C54.016 111.957 54.8693 114.005 56.576 115.456C58.368 116.907 60.8853 117.632 64.128 117.632Z" fill="white"/>
<circle cx="85" cy="45" r="15" fill="#E8745A" fill-opacity="0.2"/>
<circle cx="85" cy="45" r="12" fill="#E8745A" fill-opacity="0.13"/>
<circle cx="85" cy="45" r="8" fill="#E8745A"/>
</svg>
